<?xml version="1.0" encoding="UTF-8"?>
<svg id="Layer_2" data-name="Layer 2" xmlns="http://www.w3.org/2000/svg" viewBox="0 0 25 23.54">
  <defs>
    <style>
      .cls-1 {
        fill: #420101;
        stroke-width: 0px;
      }
    </style>
  </defs>
  <g id="Content">
    <g>
      <path class="cls-1" d="m23.23,5.54h-9.42c-.98,0-1.77-.79-1.77-1.77s.79-1.77,1.77-1.77h9.42c.98,0,1.77.79,1.77,1.77s-.79,1.77-1.77,1.77Z"/>
      <path class="cls-1" d="m23.23,14.71h-11.77c-.98,0-1.77-.79-1.77-1.77s.79-1.77,1.77-1.77h11.77c.98,0,1.77.79,1.77,1.77s-.79,1.77-1.77,1.77Z"/>
      <path class="cls-1" d="m23.23,23.54h-11.77c-.98,0-1.77-.79-1.77-1.77s.79-1.77,1.77-1.77h11.77c.98,0,1.77.79,1.77,1.77s-.79,1.77-1.77,1.77Z"/>
      <path class="cls-1" d="m4.81,7.57c-.42,0-.84-.15-1.17-.44l-1.87-1.65c-.73-.65-.8-1.76-.15-2.49s1.76-.8,2.49-.15l.7.62L8.25.44c.73-.64,1.85-.57,2.49.16.64.73.57,1.85-.16,2.49l-4.6,4.04c-.33.29-.75.44-1.16.44Z"/>
      <path class="cls-1" d="m3.63,15.51c-.42,0-.84-.15-1.17-.44l-1.87-1.65c-.73-.65-.8-1.76-.15-2.49.65-.73,1.76-.8,2.49-.15l.7.62,3.44-3.01c.73-.64,1.85-.57,2.49.16.64.73.57,1.85-.16,2.49l-4.6,4.04c-.33.29-.75.44-1.16.44Z"/>
      <path class="cls-1" d="m3.63,23.46c-.42,0-.84-.15-1.17-.44l-1.87-1.65c-.73-.65-.8-1.76-.15-2.49.65-.73,1.76-.8,2.49-.15l.7.62,3.44-3.01c.73-.64,1.85-.57,2.49.16.64.73.57,1.85-.16,2.49l-4.6,4.04c-.33.29-.75.44-1.16.44Z"/>
    </g>
  </g>
</svg>