<?xml version="1.0" encoding="UTF-8"?>
<svg id="Layer_2" data-name="Layer 2" xmlns="http://www.w3.org/2000/svg" viewBox="0 0 179.85 119.34">
  <defs>
    <style>
      .cls-1 {
        fill: #f95732;
      }

      .cls-1, .cls-2 {
        stroke-width: 0px;
      }

      .cls-2 {
        fill: #f2d9af;
      }
    </style>
  </defs>
  <g id="Containers">
    <g>
      <g>
        <path class="cls-1" d="m26.45,104.41h-12.58L0,.73h14.23l5.88,56.48L25.9.73h14.23l-13.68,103.68Z"/>
        <path class="cls-2" d="m52.24,104.41V.73h13.87v103.68h-13.87Z"/>
        <path class="cls-2" d="m103.19.73h13.87v103.68h-12.12l-12.86-46.83v46.83h-13.87V.73h11.11l13.87,49.87V.73Z"/>
        <path class="cls-2" d="m133.48,11.85c1.9-4.35,4.71-7.5,8.45-9.46,3.18-1.59,7.38-2.39,12.58-2.39s9.4.8,12.58,2.39c3.73,1.96,6.55,5.11,8.45,9.46,2.88,6.67,4.32,20.23,4.32,40.68,0,21.49-1.32,35.33-3.95,41.51-1.9,4.35-4.81,7.38-8.72,9.09-3,1.35-7.22,2.02-12.67,2.02s-9.73-.67-12.67-2.02c-3.92-1.71-6.83-4.74-8.72-9.09-2.63-6.18-3.95-20.02-3.95-41.51s1.44-34.01,4.32-40.68Zm27,79.34c1.16-.61,2.08-1.84,2.75-3.67,1.65-4.65,2.48-16.31,2.48-34.99s-.92-29.17-2.75-34.25c-.8-2.14-1.75-3.58-2.85-4.32-1.16-.67-3.03-1.01-5.6-1.01s-4.44.37-5.6,1.1c-1.16.67-2.11,2.08-2.85,4.22-1.84,5.14-2.75,16.56-2.75,34.25,0,18.67.83,30.34,2.48,34.99.67,1.84,1.56,3.06,2.66,3.67,1.16.61,3.18.92,6.06.92s4.87-.31,5.97-.92Z"/>
      </g>
      <rect class="cls-2" x="4.9" y="109.51" width="29.49" height="9.83"/>
    </g>
  </g>
</svg>