<?xml version="1.0" encoding="UTF-8"?>
<svg id="Layer_2" data-name="Layer 2" xmlns="http://www.w3.org/2000/svg" viewBox="0 0 58.63 57.77">
  <defs>
    <style>
      .cls-1 {
        fill: #f95148;
        stroke-width: 0px;
      }
    </style>
  </defs>
  <g id="Content">
    <g>
      <g>
        <path class="cls-1" d="m42.74,19.27h-5.91c-.98,0-1.77.79-1.77,1.77s.79,1.77,1.77,1.77h5.91c.98,0,1.77-.79,1.77-1.77s-.79-1.77-1.77-1.77Z"/>
        <path class="cls-1" d="m42.74,28.5h-5.91c-.98,0-1.77.79-1.77,1.77s.79,1.77,1.77,1.77h5.91c.98,0,1.77-.79,1.77-1.77s-.79-1.77-1.77-1.77Z"/>
        <path class="cls-1" d="m42.74,40.8h-21.35c-.98,0-1.77-.79-1.77-1.77s.79-1.77,1.77-1.77h21.35c.98,0,1.77.79,1.77,1.77s-.79,1.77-1.77,1.77Z"/>
        <path class="cls-1" d="m31.05,19.27h-10.14c-.71,0-1.28.57-1.28,1.28v10.14c0,.71.57,1.28,1.28,1.28h10.14c.71,0,1.28-.57,1.28-1.28v-10.14c0-.71-.57-1.28-1.28-1.28Zm-.87,4.67l-3.61,5.04c-.28.39-.72.6-1.17.6-.29,0-.58-.09-.83-.27l-2.74-1.96c-.64-.46-.79-1.35-.33-2,.46-.64,1.35-.79,2-.33l1.58,1.13,2.77-3.87c.46-.64,1.36-.79,2-.33s.79,1.36.33,2Z"/>
      </g>
      <path class="cls-1" d="m32.13,4.77c-1.93,0-3.81.21-5.63.61C23.75,2.09,19.62,0,15,0,6.72,0,0,6.72,0,15c0,4.89,2.35,9.23,5.98,11.97-.23,1.4-.35,2.84-.35,4.3,0,14.61,11.89,26.5,26.5,26.5s26.5-11.89,26.5-26.5S46.74,4.77,32.13,4.77ZM6.2,14.96c0-.83.67-1.5,1.5-1.5h5.8v-5.8c0-.83.67-1.5,1.5-1.5s1.5.67,1.5,1.5v5.8h5.8c.83,0,1.5.67,1.5,1.5s-.67,1.5-1.5,1.5h-5.8v5.8c0,.83-.67,1.5-1.5,1.5s-1.5-.67-1.5-1.5v-5.8h-5.8c-.83,0-1.5-.67-1.5-1.5Zm25.93,39.8c-12.96,0-23.5-10.54-23.5-23.5,0-.89.05-1.77.15-2.63,1.9.87,4,1.36,6.22,1.36,8.28,0,15-6.72,15-15,0-2.5-.62-4.85-1.7-6.92,1.25-.2,2.52-.32,3.83-.32,12.96,0,23.5,10.54,23.5,23.5s-10.54,23.5-23.5,23.5Z"/>
    </g>
  </g>
</svg>