<svg width="59" height="58" viewBox="0 0 59 58" fill="none" xmlns="http://www.w3.org/2000/svg">
  <path d="M32.13 4.77C30.2 4.77 28.32 4.98 26.5 5.38C23.75 2.09 19.62 0 15 0C6.72 0 0 6.72 0 15C0 19.89 2.35 24.23 5.98 26.97C5.75 28.37 5.63 29.81 5.63 31.27C5.63 45.88 17.52 57.77 32.13 57.77C46.74 57.77 58.63 45.88 58.63 31.27C58.63 16.66 46.74 4.77 32.13 4.77ZM6.2 14.96C6.2 14.13 6.87 13.46 7.7 13.46H13.5V7.66C13.5 6.83 14.17 6.16 15 6.16C15.83 6.16 16.5 6.83 16.5 7.66V13.46H22.3C23.13 13.46 23.8 14.13 23.8 14.96C23.8 15.79 23.13 16.46 22.3 16.46H16.5V22.26C16.5 23.09 15.83 23.76 15 23.76C14.17 23.76 13.5 23.09 13.5 22.26V16.46H7.7C6.87 16.46 6.2 15.79 6.2 14.96ZM32.13 54.76C19.17 54.76 8.63 44.22 8.63 31.26C8.63 30.37 8.68 29.49 8.78 28.63C10.68 29.5 12.78 29.99 15 29.99C23.28 29.99 30 23.27 30 14.99C30 12.49 29.38 10.14 28.3 8.07C29.55 7.87 30.82 7.75 32.13 7.75C45.09 7.75 55.63 18.29 55.63 31.25C55.63 44.21 45.09 54.75 32.13 54.75V54.76Z" fill="#F95148"/>
  <path d="M44.25 26.9109L44.25 43.3043C44.25 43.8211 44.0426 44.3163 43.6742 44.681C43.3059 45.0456 42.807 45.25 42.2872 45.25L22.7128 45.25C22.193 45.25 21.694 45.0456 21.3258 44.681C20.9574 44.3163 20.75 43.8211 20.75 43.3043L20.75 20.6957C20.75 20.1789 20.9574 19.6837 21.3258 19.319C21.6941 18.9544 22.193 18.75 22.7128 18.75L36.0095 18.75L44.25 26.9109ZM44.25 26.9109C44.2505 26.6548 44.1998 26.4012 44.1009 26.1648C44.002 25.9284 43.8569 25.7139 43.6742 25.5336C43.6741 25.5335 43.6741 25.5335 43.674 25.5334L37.3973 19.3192L44.25 26.9104L44.25 26.9109ZM27.8902 38.6675C27.7054 38.4846 27.6011 38.2359 27.6011 37.976C27.6011 37.7162 27.7054 37.4674 27.8902 37.2845C28.0749 37.1016 28.3249 36.9993 28.5851 36.9993L36.4149 36.9993C36.6751 36.9993 36.9251 37.1016 37.1098 37.2845C37.2946 37.4674 37.3989 37.7162 37.3989 37.976C37.3989 38.2359 37.2946 38.4846 37.1098 38.6675C36.9251 38.8504 36.6751 38.9527 36.4149 38.9527L28.5851 38.9527C28.3249 38.9527 28.0749 38.8504 27.8902 38.6675ZM28.4475 31.3494L36.2772 31.3494C36.5374 31.3494 36.7874 31.4517 36.9722 31.6346C37.157 31.8176 37.2613 32.0663 37.2613 32.3262C37.2613 32.586 37.157 32.8347 36.9722 33.0177C36.7874 33.2006 36.5374 33.3029 36.2772 33.3029L28.4475 33.3029C28.1873 33.3029 27.9373 33.2006 27.7525 33.0177C27.5677 32.8347 27.4634 32.586 27.4634 32.3262C27.4634 32.0663 27.5677 31.8176 27.7525 31.6346C27.9373 31.4517 28.1873 31.3494 28.4475 31.3494ZM32.5 27.4863L28.5851 27.4863C28.3249 27.4863 28.0749 27.384 27.8902 27.2011C27.7054 27.0181 27.6011 26.7694 27.6011 26.5095C27.6011 26.2497 27.7054 26.001 27.8902 25.818C28.0749 25.6351 28.3249 25.5328 28.5851 25.5328L32.5 25.5328C32.7602 25.5328 33.0102 25.6351 33.1949 25.818C33.3798 26.001 33.484 26.2497 33.484 26.5095C33.484 26.7694 33.3798 27.0181 33.1949 27.2011C33.0102 27.384 32.7602 27.4863 32.5 27.4863ZM35.4308 26.5095L35.4309 20.7035L22.7181 20.7035L22.7181 43.2965L42.2819 43.2965L42.2819 27.4863L36.4149 27.4863C36.1547 27.4863 35.9047 27.384 35.72 27.2011C35.5351 27.0181 35.4308 26.7694 35.4308 26.5095ZM37.3989 25.5328L40.8866 25.5328L37.3989 22.0799L37.3989 25.5328Z" fill="#F95148" stroke="#F95148" stroke-width="0.5"/>
</svg>
