<?xml version="1.0" encoding="UTF-8"?>
<svg id="Layer_2" data-name="Layer 2" xmlns="http://www.w3.org/2000/svg" viewBox="0 0 58.63 57.77">
  <defs>
    <style>
      .cls-1 {
        fill: #f95148;
        stroke-width: 0px;
      }
    </style>
  </defs>
  <g id="Content">
    <g>
      <g>
        <path class="cls-1" d="m36.34,31.88h0s0-.02,0-.02c-.08-.39-.19-.72-.3-.89-.66-1.66-2.04-4.38-2.06-4.41-.24-1.07-.34-1.91-.34-1.91v-4.93c0-.25-.22-.45-.49-.45h-1.87c-.27,0-.49.2-.49.45v4.93s-.09.83-.34,1.91c-.02.04-1.4,2.75-2.06,4.41-.12.17-.22.5-.3.89,0,0,0,.02,0,.02h0c-.15.7-.24,1.53-.24,1.8v9.13c0,.8.71,1.45,1.58,1.45h5.57c.88,0,1.58-.65,1.58-1.45v-9.13c0-.27-.09-1.11-.24-1.8Z"/>
        <path class="cls-1" d="m25.83,42.82v-9.13c0-.37.09-1.19.22-1.91v-.07s.07-.25.07-.25c.12-.52.25-.92.43-1.24.14-.34.3-.71.47-1.09-.61-1.31-1.24-2.54-1.25-2.57-.24-1.07-.34-1.91-.34-1.91v-4.93c0-.25-.22-.45-.49-.45h-1.87c-.27,0-.49.2-.49.45v4.93s-.09.83-.34,1.91c-.02.04-1.4,2.75-2.06,4.41-.12.17-.22.5-.3.89,0,0,0,.02,0,.02h0c-.15.7-.24,1.53-.24,1.8v9.13c0,.8.71,1.45,1.58,1.45h5.01c-.24-.44-.39-.93-.39-1.45Z"/>
        <path class="cls-1" d="m44.39,31.88h0s0-.02,0-.02c-.08-.39-.19-.72-.3-.89-.66-1.66-2.04-4.38-2.06-4.41-.24-1.07-.34-1.91-.34-1.91v-4.93c0-.25-.22-.45-.49-.45h-1.87c-.27,0-.49.2-.49.45v4.93s-.09.83-.34,1.91c-.01.02-.59,1.16-1.18,2.41.2.43.38.86.54,1.25.18.32.31.72.43,1.25l.02.09c.16.77.27,1.73.27,2.14v9.13c0,.52-.15,1.01-.39,1.45h4.86c.88,0,1.58-.65,1.58-1.45v-9.13c0-.27-.09-1.11-.24-1.8Z"/>
      </g>
      <path class="cls-1" d="m32.13,4.77c-1.93,0-3.81.21-5.63.61C23.75,2.09,19.62,0,15,0,6.72,0,0,6.72,0,15c0,4.89,2.35,9.23,5.98,11.97-.23,1.4-.35,2.84-.35,4.3,0,14.61,11.89,26.5,26.5,26.5s26.5-11.89,26.5-26.5S46.74,4.77,32.13,4.77ZM6.2,14.96c0-.83.67-1.5,1.5-1.5h5.8v-5.8c0-.83.67-1.5,1.5-1.5s1.5.67,1.5,1.5v5.8h5.8c.83,0,1.5.67,1.5,1.5s-.67,1.5-1.5,1.5h-5.8v5.8c0,.83-.67,1.5-1.5,1.5s-1.5-.67-1.5-1.5v-5.8h-5.8c-.83,0-1.5-.67-1.5-1.5Zm25.93,39.8c-12.96,0-23.5-10.54-23.5-23.5,0-.89.05-1.77.15-2.63,1.9.87,4,1.36,6.22,1.36,8.28,0,15-6.72,15-15,0-2.5-.62-4.85-1.7-6.92,1.25-.2,2.52-.32,3.83-.32,12.96,0,23.5,10.54,23.5,23.5s-10.54,23.5-23.5,23.5Z"/>
    </g>
  </g>
</svg>