<?xml version="1.0" encoding="UTF-8"?>
<svg id="Layer_2" data-name="Layer 2" xmlns="http://www.w3.org/2000/svg" viewBox="0 0 25 25">
  <defs>
    <style>
      .cls-1 {
        fill: #420101;
        stroke-width: 0px;
      }
    </style>
  </defs>
  <g id="Content">
    <g>
      <path class="cls-1" d="m23.13,0H1.88C.84,0,0,.84,0,1.88v21.25c0,1.03.84,1.87,1.88,1.87h21.25c1.03,0,1.87-.84,1.87-1.87V1.88c0-1.04-.84-1.88-1.87-1.88Zm-1.13,22H3V3h19v19Z"/>
      <g>
        <g>
          <circle class="cls-1" cx="12.42" cy="6.25" r="1.94"/>
          <circle class="cls-1" cx="5.95" cy="6.25" r="1.94"/>
          <circle class="cls-1" cx="18.9" cy="6.25" r="1.94"/>
          <path class="cls-1" d="m19.99,9.46c-.07,0-.14,0-.2.02-.05,0-.18.05-.18.05,0,0-.03,0-.07.02-.9.21-1.92-.01-2.6-.69-.02-.03-.04-.06-.07-.09-.21-.44-.65-.75-1.17-.75s-.97.31-1.17.75h-.01s-.04.06-.07.09c-.52.52-1.23.77-1.94.77s-1.42-.26-1.94-.77c-.03-.03-.04-.06-.07-.09h-.01c-.2-.44-.64-.75-1.17-.75s-.96.31-1.17.75c-.03.03-.05.06-.07.09-.68.67-1.7.9-2.6.69-.04-.01-.07-.02-.07-.02,0,0-.13-.04-.18-.05-.06-.01-.13-.02-.2-.02-.56,0-1.02.45-1.02,1.02,0,.42.25.77.61.93.01,0,.16.06.23.07.42.13.84.18,1.3.18,1.19,0,2.31-.45,3.18-1.25.88.8,2,1.25,3.19,1.25s2.31-.45,3.19-1.25c.87.8,1.99,1.25,3.18,1.25.46,0,.88-.05,1.3-.18.07,0,.22-.07.23-.07.36-.16.61-.51.61-.93,0-.57-.46-1.02-1.02-1.02Z"/>
        </g>
        <g>
          <circle class="cls-1" cx="12.42" cy="15.27" r="1.94"/>
          <circle class="cls-1" cx="5.95" cy="15.27" r="1.94"/>
          <circle class="cls-1" cx="18.9" cy="15.27" r="1.94"/>
          <path class="cls-1" d="m19.99,18.49c-.07,0-.14,0-.2.02-.05,0-.18.05-.18.05,0,0-.03,0-.07.02-.9.21-1.92-.01-2.6-.69-.02-.03-.04-.06-.07-.09-.21-.44-.65-.75-1.17-.75s-.97.31-1.17.75h-.01s-.04.06-.07.09c-.52.52-1.23.77-1.94.77s-1.42-.26-1.94-.77c-.03-.03-.04-.06-.07-.09h-.01c-.2-.44-.64-.75-1.17-.75s-.96.31-1.17.75c-.03.03-.05.06-.07.09-.68.67-1.7.9-2.6.69-.04-.01-.07-.02-.07-.02,0,0-.13-.04-.18-.05-.06-.01-.13-.02-.2-.02-.56,0-1.02.45-1.02,1.02,0,.42.25.77.61.93.01,0,.16.06.23.07.42.13.84.18,1.3.18,1.19,0,2.31-.45,3.18-1.25.88.8,2,1.25,3.19,1.25s2.31-.45,3.19-1.25c.87.8,1.99,1.25,3.18,1.25.46,0,.88-.05,1.3-.18.07,0,.22-.07.23-.07.36-.16.61-.51.61-.93,0-.57-.46-1.02-1.02-1.02Z"/>
        </g>
      </g>
    </g>
  </g>
</svg>