<?xml version="1.0" encoding="UTF-8"?>
<svg id="Layer_2" data-name="Layer 2" xmlns="http://www.w3.org/2000/svg" viewBox="0 0 24.75 18.17">
  <defs>
    <style>
      .cls-1 {
        fill: #420101;
        stroke-width: 0px;
      }
    </style>
  </defs>
  <g id="Content">
    <path class="cls-1" d="m24.56,6.21c-.33-.45-.96-.54-1.4-.21l-2.58,1.92c-.75-.75-1.62-1.39-2.59-1.9l1.79-3.1c.27-.48.11-1.09-.37-1.37-.48-.28-1.09-.11-1.36.37l-1.91,3.31c-.88-.29-1.8-.48-2.76-.56V1c0-.55-.45-1-1-1s-1,.45-1,1v3.68c-.95.07-1.87.26-2.75.55l-1.91-3.31c-.28-.48-.89-.65-1.37-.37-.48.28-.64.89-.37,1.37l1.79,3.09c-.96.52-1.84,1.16-2.59,1.91l-2.58-1.92c-.44-.33-1.07-.24-1.4.21-.33.44-.23,1.07.21,1.4l2.51,1.86c-.33.49-.61,1.01-.84,1.55-.1.24-.1.52,0,.77,1.6,3.82,5.74,6.38,10.3,6.38s8.7-2.56,10.3-6.38c.1-.25.1-.53,0-.77-.23-.54-.51-1.06-.84-1.55l2.51-1.86c.45-.33.54-.96.21-1.4Zm-12.18,8.54c-1.85,0-3.35-1.5-3.35-3.35s1.5-3.35,3.35-3.35,3.35,1.5,3.35,3.35-1.5,3.35-3.35,3.35Zm-8.28-3.35c.13-.26.27-.51.42-.75.36-.56.8-1.07,1.29-1.53.58-.54,1.24-1.01,1.97-1.37.43-.23.89-.41,1.36-.57-1.27.98-2.11,2.5-2.11,4.23s.83,3.23,2.09,4.21c-2.22-.76-4.06-2.25-5.02-4.21Zm11.54,4.21c1.26-.98,2.09-2.49,2.09-4.21s-.83-3.25-2.11-4.22c.47.16.92.35,1.35.57.73.37,1.39.84,1.97,1.37.49.46.93.97,1.29,1.53.15.24.29.49.42.75-.96,1.96-2.8,3.45-5.02,4.21Z"/>
  </g>
</svg>