<?xml version="1.0" encoding="UTF-8"?>
<svg id="Layer_2" data-name="Layer 2" xmlns="http://www.w3.org/2000/svg" viewBox="0 0 20 20.16">
  <defs>
    <style>
      .cls-1 {
        fill: #f2d9af;
        stroke-width: 0px;
      }
    </style>
  </defs>
  <g id="Content">
    <g>
      <path class="cls-1" d="m18.5,3H1.5c-.83,0-1.5-.67-1.5-1.5S.67,0,1.5,0h17c.83,0,1.5.67,1.5,1.5s-.67,1.5-1.5,1.5Z"/>
      <path class="cls-1" d="m18.5,11.58H1.5c-.83,0-1.5-.67-1.5-1.5s.67-1.5,1.5-1.5h17c.83,0,1.5.67,1.5,1.5s-.67,1.5-1.5,1.5Z"/>
      <path class="cls-1" d="m18.5,20.16H1.5c-.83,0-1.5-.67-1.5-1.5s.67-1.5,1.5-1.5h17c.83,0,1.5.67,1.5,1.5s-.67,1.5-1.5,1.5Z"/>
    </g>
  </g>
</svg>