<?xml version="1.0" encoding="UTF-8"?>
<svg id="Layer_2" data-name="Layer 2" xmlns="http://www.w3.org/2000/svg" viewBox="0 0 25 25">
  <defs>
    <style>
      .cls-1 {
        fill: #420101;
        stroke-width: 0px;
      }
    </style>
  </defs>
  <g id="Content">
    <path class="cls-1" d="m24.45,11.16L13.83.55c-.73-.73-1.92-.73-2.66,0L.55,11.16c-.73.73-.73,1.92,0,2.65.37.37.85.55,1.33.55s.96-.18,1.33-.55l.53-.53v9.85c0,1.04.84,1.88,1.88,1.88h3.13v-8.75c0-.35.28-.63.63-.63h6.26c.35,0,.63.28.63.63v8.75h3.13c1.04,0,1.88-.84,1.88-1.88v-9.85l.53.53c.37.37.85.55,1.33.55s.96-.18,1.33-.55c.73-.73.73-1.92,0-2.65Z"/>
  </g>
</svg>