<?xml version="1.0" encoding="UTF-8"?>
<svg id="Layer_2" data-name="Layer 2" xmlns="http://www.w3.org/2000/svg" viewBox="0 0 36.54 36.54">
  <defs>
    <style>
      .cls-1 {
        fill: #420101;
        stroke-width: 0px;
      }
    </style>
  </defs>
  <g id="Content">
    <g>
      <path class="cls-1" d="m18.27,36.54C8.19,36.54,0,28.34,0,18.27S8.19,0,18.27,0s18.27,8.19,18.27,18.27-8.2,18.27-18.27,18.27Zm0-33.54c-8.42,0-15.27,6.85-15.27,15.27s6.85,15.27,15.27,15.27,15.27-6.85,15.27-15.27S26.69,3,18.27,3Z"/>
      <g>
        <path class="cls-1" d="m27.12,19.77H9.41c-.83,0-1.5-.67-1.5-1.5s.67-1.5,1.5-1.5h17.71c.83,0,1.5.67,1.5,1.5s-.67,1.5-1.5,1.5Z"/>
        <path class="cls-1" d="m16.43,25.91c-.35,0-.7-.12-.99-.37l-7.02-6.14c-.33-.28-.51-.7-.51-1.13s.19-.84.51-1.13l7.02-6.14c.62-.55,1.57-.48,2.12.14.55.62.48,1.57-.14,2.12l-5.73,5.01,5.73,5.01c.62.55.69,1.49.14,2.12-.3.34-.71.51-1.13.51Z"/>
      </g>
    </g>
  </g>
</svg>