<?xml version="1.0" encoding="UTF-8"?>
<svg id="Layer_2" data-name="Layer 2" xmlns="http://www.w3.org/2000/svg" viewBox="0 0 24.88 21.53">
  <defs>
    <style>
      .cls-1 {
        fill: #420101;
        stroke-width: 0px;
      }
    </style>
  </defs>
  <g id="Content">
    <g>
      <path class="cls-1" d="m23.12,0h-5.91C16.23,0,15.44.79,15.44,1.77s.79,1.77,1.77,1.77h5.91c.98,0,1.77-.79,1.77-1.77S24.09,0,23.12,0Z"/>
      <path class="cls-1" d="m23.12,9.23h-5.91c-.98,0-1.77.79-1.77,1.77s.79,1.77,1.77,1.77h5.91c.98,0,1.77-.79,1.77-1.77s-.79-1.77-1.77-1.77Z"/>
      <path class="cls-1" d="m23.12,21.53H1.77c-.98,0-1.77-.79-1.77-1.77s.79-1.77,1.77-1.77h21.35c.98,0,1.77.79,1.77,1.77s-.79,1.77-1.77,1.77Z"/>
      <path class="cls-1" d="m11.42,0H1.28C.57,0,0,.57,0,1.28v10.14C0,12.13.57,12.7,1.28,12.7h10.14c.71,0,1.28-.57,1.28-1.28V1.28c0-.71-.57-1.28-1.28-1.28Zm-.87,4.67l-3.61,5.04c-.28.39-.72.6-1.17.6-.29,0-.58-.09-.83-.27l-2.74-1.96c-.64-.46-.79-1.35-.33-2,.46-.64,1.35-.79,2-.33l1.58,1.13,2.77-3.87c.46-.64,1.36-.79,2-.33s.79,1.36.33,2Z"/>
    </g>
  </g>
</svg>