<?xml version="1.0" encoding="UTF-8"?>
<svg id="Layer_2" data-name="Layer 2" xmlns="http://www.w3.org/2000/svg" viewBox="0 0 25 25">
  <defs>
    <style>
      .cls-1 {
        fill: #420101;
        stroke-width: 0px;
      }
    </style>
  </defs>
  <g id="Content">
    <g>
      <path class="cls-1" d="m16.71,12.62h0s0-.02,0-.02c-.08-.39-.19-.72-.3-.89-.66-1.66-2.04-4.38-2.06-4.41-.24-1.07-.34-1.91-.34-1.91V.45c0-.25-.22-.45-.49-.45h-1.87c-.27,0-.49.2-.49.45v4.93s-.09.83-.34,1.91c-.02.04-1.4,2.75-2.06,4.41-.12.17-.22.5-.3.89,0,0,0,.02,0,.02h0c-.15.7-.24,1.53-.24,1.8v9.13c0,.8.71,1.45,1.58,1.45h5.57c.88,0,1.58-.65,1.58-1.45v-9.13c0-.27-.09-1.11-.24-1.8Z"/>
      <path class="cls-1" d="m6.21,23.55v-9.13c0-.37.09-1.19.22-1.91v-.07s.07-.25.07-.25c.12-.52.25-.92.43-1.24.14-.34.3-.71.47-1.09-.61-1.31-1.24-2.54-1.25-2.57-.24-1.07-.34-1.91-.34-1.91V.45c0-.25-.22-.45-.49-.45h-1.87c-.27,0-.49.2-.49.45v4.93s-.09.83-.34,1.91c-.02.04-1.4,2.75-2.06,4.41-.12.17-.22.5-.3.89,0,0,0,.02,0,.02h0c-.15.7-.24,1.53-.24,1.8v9.13c0,.8.71,1.45,1.58,1.45h5.01c-.24-.44-.39-.93-.39-1.45Z"/>
      <path class="cls-1" d="m24.76,12.62h0s0-.02,0-.02c-.08-.39-.19-.72-.3-.89-.66-1.66-2.04-4.38-2.06-4.41-.24-1.07-.34-1.91-.34-1.91V.45c0-.25-.22-.45-.49-.45h-1.87c-.27,0-.49.2-.49.45v4.93s-.09.83-.34,1.91c-.01.02-.59,1.16-1.18,2.41.2.43.38.86.54,1.25.18.32.31.72.43,1.25l.02.09c.16.77.27,1.73.27,2.14v9.13c0,.52-.15,1.01-.39,1.45h4.86c.88,0,1.58-.65,1.58-1.45v-9.13c0-.27-.09-1.11-.24-1.8Z"/>
    </g>
  </g>
</svg>