<?xml version="1.0" encoding="UTF-8"?>
<svg id="Layer_2" data-name="Layer 2" xmlns="http://www.w3.org/2000/svg" viewBox="0 0 134.09 88.97">
  <defs>
    <style>
      .cls-1 {
        fill: #f95148;
      }

      .cls-1, .cls-2 {
        stroke-width: 0px;
      }

      .cls-2 {
        fill: #f2d9af;
      }
    </style>
  </defs>
  <g id="Layer_1-2" data-name="Layer 1">
    <g>
      <g>
        <path class="cls-1" d="m19.72,77.85h-9.38L0,.55h10.61l4.38,42.11L19.31.55h10.61l-10.2,77.3Z"/>
        <path class="cls-2" d="m38.95,77.85V.55h10.34v77.3h-10.34Z"/>
        <path class="cls-2" d="m76.93.55h10.34v77.3h-9.04l-9.59-34.92v34.92h-10.34V.55h8.29l10.34,37.18V.55Z"/>
        <path class="cls-2" d="m99.51,8.83c1.41-3.24,3.51-5.59,6.3-7.05,2.37-1.19,5.5-1.78,9.38-1.78s7.01.59,9.38,1.78c2.78,1.46,4.88,3.81,6.3,7.05,2.15,4.98,3.22,15.09,3.22,30.33,0,16.02-.98,26.34-2.94,30.95-1.42,3.24-3.58,5.5-6.5,6.78-2.24,1-5.39,1.51-9.45,1.51s-7.26-.5-9.45-1.51c-2.92-1.28-5.09-3.54-6.5-6.78-1.96-4.61-2.94-14.93-2.94-30.95s1.07-25.36,3.22-30.33Zm20.13,59.16c.87-.46,1.55-1.37,2.05-2.74,1.23-3.47,1.85-12.16,1.85-26.09s-.68-21.75-2.05-25.54c-.59-1.6-1.3-2.67-2.12-3.22-.87-.5-2.26-.75-4.18-.75s-3.31.27-4.18.82c-.87.5-1.57,1.55-2.12,3.15-1.37,3.83-2.05,12.35-2.05,25.54,0,13.92.62,22.62,1.85,26.09.5,1.37,1.16,2.28,1.99,2.74.87.46,2.37.68,4.52.68s3.63-.23,4.45-.68Z"/>
      </g>
      <rect class="cls-2" x="3.66" y="81.64" width="21.99" height="7.33"/>
    </g>
  </g>
</svg>